<svg width="36" height="21" viewBox="0 0 36 21" fill="none" xmlns="http://www.w3.org/2000/svg">
<g clip-path="url(#clip0_1285_2344)">
<path d="M15.9632 1.49391C17.1659 0.605198 18.8039 0.605135 20.0067 1.49375L33.9465 11.7928C34.5941 12.2712 34.9765 13.0308 34.9765 13.8387V18.6634C34.9765 19.4515 34.1311 19.9474 33.4481 19.5599L17.9868 10.7864L2.52168 19.5625C1.83864 19.9501 0.993164 19.4542 0.993164 18.6661V13.8405C0.993164 13.0327 1.37557 12.2733 2.02317 11.7947L15.9632 1.49391Z" fill="#00B57F"/>
<mask id="mask0_1285_2344" style="mask-type:alpha" maskUnits="userSpaceOnUse" x="0" y="0" width="35" height="20">
<path d="M15.9632 1.49391C17.1659 0.605198 18.8039 0.605135 20.0067 1.49375L33.9465 11.7928C34.5941 12.2712 34.9765 13.0308 34.9765 13.8387V18.6634C34.9765 19.4515 34.1311 19.9474 33.4481 19.5599L17.9868 10.7864L2.52168 19.5625C1.83864 19.9501 0.993164 19.4542 0.993164 18.6661V13.8405C0.993164 13.0327 1.37557 12.2733 2.02317 11.7947L15.9632 1.49391Z" fill="#00CB8E"/>
</mask>
<g mask="url(#mask0_1285_2344)">
<g filter="url(#filter0_f_1285_2344)">
<path d="M30.6305 6.80771L26.0171 -2.1535L12.506 4.86854L17.1194 13.8298L30.6305 6.80771Z" fill="#009367"/>
</g>
</g>
<path d="M15.9632 1.49415C17.166 0.60544 18.8039 0.60538 20.0067 1.49399C22.6334 3.43471 24.2569 4.63392 25.3245 5.42229C26.6429 6.4003 26.865 6.55473 27.531 7.05232C26.5576 6.45178 24.9865 6.79449 23.7911 7.46412C21.8614 8.54509 18.1567 10.6902 16.1687 11.8183L2.52168 19.5627C1.83864 19.9503 0.993164 19.4545 0.993164 18.6663V13.8407C0.993164 13.0329 1.37557 12.2735 2.02317 11.7949L15.9632 1.49415Z" fill="url(#paint0_linear_1285_2344)"/>
</g>
<defs>
<filter id="filter0_f_1285_2344" x="-35.5521" y="-50.2117" width="114.241" height="112.1" filterUnits="userSpaceOnUse" color-interpolation-filters="sRGB">
<feFlood flood-opacity="0" result="BackgroundImageFix"/>
<feBlend mode="normal" in="SourceGraphic" in2="BackgroundImageFix" result="shape"/>
<feGaussianBlur stdDeviation="24.0291" result="effect1_foregroundBlur_1285_2344"/>
</filter>
<linearGradient id="paint0_linear_1285_2344" x1="22.2371" y1="3.26033" x2="0.937032" y2="16.4502" gradientUnits="userSpaceOnUse">
<stop stop-color="#00BF86"/>
<stop offset="1" stop-color="#00DF9C"/>
</linearGradient>
<clipPath id="clip0_1285_2344">
<rect width="34.0757" height="20.4755" fill="white" transform="translate(0.961914)"/>
</clipPath>
</defs>
</svg>
