<svg width="100" height="40" viewBox="0 0 100 40" fill="none" xmlns="http://www.w3.org/2000/svg">
<g clip-path="url(#clip0_1283_2258)">
<path d="M47.9633 1.49391C49.166 0.605198 50.8041 0.605135 52.0068 1.49375L65.9466 11.7928C66.5943 12.2712 66.9767 13.0308 66.9767 13.8387V18.6634C66.9767 19.4515 66.1312 19.9474 65.4483 19.5599L49.9869 10.7864L34.5218 19.5625C33.8388 19.9501 32.9933 19.4542 32.9933 18.6661V13.8405C32.9933 13.0327 33.3757 12.2733 34.0233 11.7947L47.9633 1.49391Z" fill="#00B57F"/>
<mask id="mask0_1283_2258" style="mask-type:alpha" maskUnits="userSpaceOnUse" x="32" y="0" width="35" height="20">
<path d="M47.9633 1.49391C49.166 0.605198 50.8041 0.605135 52.0068 1.49375L65.9466 11.7928C66.5943 12.2712 66.9767 13.0308 66.9767 13.8387V18.6634C66.9767 19.4515 66.1312 19.9474 65.4483 19.5599L49.9869 10.7864L34.5218 19.5625C33.8388 19.9501 32.9933 19.4542 32.9933 18.6661V13.8405C32.9933 13.0327 33.3757 12.2733 34.0233 11.7947L47.9633 1.49391Z" fill="#00CB8E"/>
</mask>
<g mask="url(#mask0_1283_2258)">
<g filter="url(#filter0_f_1283_2258)">
<path d="M62.6306 6.80771L58.0172 -2.1535L44.5062 4.86854L49.1196 13.8298L62.6306 6.80771Z" fill="#009367"/>
</g>
</g>
<path d="M47.9633 1.49415C49.1661 0.60544 50.8041 0.60538 52.0068 1.49399C54.6336 3.43471 56.2571 4.63392 57.3247 5.42229C58.643 6.4003 58.8651 6.55473 59.5311 7.05232C58.5577 6.45178 56.9866 6.79449 55.7913 7.46412C53.8615 8.54509 50.1568 10.6902 48.1689 11.8183L34.5218 19.5627C33.8388 19.9503 32.9933 19.4545 32.9933 18.6663V13.8407C32.9933 13.0329 33.3757 12.2735 34.0233 11.7949L47.9633 1.49415Z" fill="url(#paint0_linear_1283_2258)"/>
</g>
<g clip-path="url(#clip1_1283_2258)">
<path d="M96.4341 39.5684V31.3192C96.4341 30.3969 96.2153 29.6815 95.7778 29.1729C95.3488 28.6557 94.7526 28.3971 93.989 28.3971C93.5 28.3971 93.0754 28.5135 92.7151 28.7462C92.3547 28.9703 92.0716 29.2893 91.8657 29.703C91.6684 30.1081 91.5697 30.5779 91.5697 31.1124L90.1028 30.1297C90.1028 29.1729 90.3259 28.3282 90.772 27.5955C91.2266 26.8628 91.8314 26.2939 92.5863 25.8887C93.3499 25.475 94.1949 25.2681 95.1215 25.2681C96.7086 25.2681 97.9054 25.7422 98.7118 26.6904C99.5268 27.63 99.9343 28.8626 99.9343 30.3883V39.5684H96.4341ZM79.6793 39.5684V25.6043H82.7677V30.2331H83.2053V39.5684H79.6793ZM88.0695 39.5684V31.3192C88.0695 30.3969 87.8508 29.6815 87.4133 29.1729C86.9843 28.6557 86.388 28.3971 85.6245 28.3971C84.8954 28.3971 84.3076 28.6514 83.8615 29.16C83.424 29.6599 83.2053 30.3107 83.2053 31.1124L81.7382 30.078C81.7382 29.1643 81.9656 28.3454 82.4203 27.6213C82.875 26.8973 83.4841 26.324 84.2476 25.9017C85.0197 25.4793 85.8819 25.2681 86.8341 25.2681C87.9236 25.2681 88.816 25.5009 89.5108 25.9663C90.2143 26.4318 90.7333 27.0524 91.0678 27.8282C91.4025 28.604 91.5697 29.4574 91.5697 30.3883V39.5684H88.0695Z" fill="#141623"/>
<path d="M69.5454 39.9821C68.4558 39.9821 67.5679 39.7967 66.8816 39.4261C66.1953 39.0554 65.6591 38.5856 65.273 38.0168C64.8956 37.4478 64.6253 36.8574 64.4623 36.2454C64.2993 35.6247 64.2006 35.0601 64.1663 34.5516C64.132 34.0431 64.1149 33.6724 64.1149 33.4397V25.6042H67.6665V32.1984C67.6665 32.5173 67.6837 32.9268 67.7181 33.4267C67.7524 33.918 67.8596 34.4137 68.0398 34.9137C68.2199 35.4136 68.5116 35.8316 68.9149 36.1678C69.3266 36.5039 69.9057 36.6721 70.6521 36.6721C70.9523 36.6721 71.274 36.6247 71.6172 36.5298C71.9604 36.435 72.2821 36.254 72.5823 35.9868C72.8826 35.711 73.1271 35.3101 73.3159 34.7843C73.5132 34.2499 73.6119 33.5517 73.6119 32.6897L75.6193 33.6466C75.6193 34.7499 75.3963 35.7843 74.9502 36.7497C74.5041 37.715 73.8306 38.4951 72.9298 39.0899C72.0376 39.6847 70.9094 39.9821 69.5454 39.9821ZM74.0494 39.5683V34.9395H73.6119V25.6042H77.1378V39.5683H74.0494Z" fill="#141623"/>
<path d="M55.9458 39.9562C54.5218 39.9562 53.265 39.6502 52.1754 39.0382C51.0945 38.4175 50.2451 37.5685 49.6274 36.491C49.0183 35.4049 48.7137 34.1637 48.7137 32.7673C48.7137 31.2415 49.0141 29.9141 49.6145 28.7849C50.2151 27.6557 51.0429 26.7808 52.0982 26.1602C53.1534 25.5309 54.3673 25.2163 55.74 25.2163C57.1984 25.2163 58.438 25.5611 59.459 26.2507C60.4799 26.9403 61.2348 27.91 61.7239 29.1599C62.2129 30.4097 62.3845 31.8794 62.2386 33.5689H58.777V32.2759C58.777 30.8537 58.5496 29.8322 58.0949 29.2116C57.6488 28.5823 56.9153 28.2677 55.8944 28.2677C54.7019 28.2677 53.8225 28.6341 53.2564 29.3667C52.6987 30.0908 52.4199 31.164 52.4199 32.5862C52.4199 33.8878 52.6987 34.8963 53.2564 35.6118C53.8225 36.3186 54.6505 36.6721 55.74 36.6721C56.4263 36.6721 57.014 36.5211 57.5029 36.2195C57.9919 35.9178 58.3652 35.4825 58.6225 34.9136L62.1228 35.9221C61.5995 37.1978 60.7715 38.1892 59.6391 38.896C58.5153 39.6028 57.2842 39.9562 55.9458 39.9562ZM51.3389 33.5689V30.9571H60.5528V33.5689H51.3389Z" fill="#141623"/>
<path d="M47.94 39.5683C46.9792 39.7492 46.0355 39.8269 45.1089 39.801C44.191 39.7838 43.3674 39.6243 42.6382 39.3226C41.9176 39.0123 41.3685 38.5167 40.991 37.8357C40.6479 37.1978 40.4677 36.5514 40.4505 35.8963C40.4334 35.2325 40.4248 34.4825 40.4248 33.6465V21.7253H43.925V33.4396C43.925 33.9826 43.9293 34.4739 43.938 34.9135C43.9551 35.3445 44.0452 35.6894 44.2081 35.9479C44.517 36.4392 45.0102 36.7065 45.6881 36.7496C46.3658 36.7927 47.1165 36.7582 47.94 36.6461V39.5683ZM38.057 28.3194V25.6042H47.94V28.3194H38.057Z" fill="#141623"/>
<path d="M28.972 39.9562C27.9768 39.9562 27.1318 39.7666 26.4369 39.3873C25.7505 38.9993 25.2272 38.4865 24.8669 37.8486C24.5152 37.2021 24.3392 36.491 24.3392 35.7152C24.3392 35.0687 24.4379 34.4783 24.6352 33.9439C24.8326 33.4094 25.15 32.9396 25.5876 32.5345C26.0337 32.1208 26.6299 31.776 27.3762 31.5001C27.891 31.3105 28.5044 31.1424 29.2164 30.9959C29.9285 30.8493 30.7349 30.7114 31.6357 30.5821C32.5366 30.4442 33.5274 30.2934 34.6084 30.1296L33.3473 30.8278C33.3473 30.0003 33.1499 29.3926 32.7553 29.0047C32.3606 28.6168 31.7 28.4229 30.7735 28.4229C30.2588 28.4229 29.7226 28.5479 29.165 28.7978C28.6074 29.0478 28.217 29.4917 27.9939 30.1296L24.8283 29.1211C25.18 27.966 25.8406 27.0265 26.8101 26.3024C27.7794 25.5783 29.1006 25.2163 30.7735 25.2163C32.0004 25.2163 33.0899 25.4059 34.0421 25.7852C34.9944 26.1645 35.7151 26.8196 36.204 27.7505C36.4785 28.2677 36.6416 28.7849 36.693 29.3021C36.7446 29.8193 36.7703 30.3968 36.7703 31.0347V39.5683H33.7076V36.6979L34.1451 37.2926C33.4673 38.2322 32.7339 38.9132 31.9446 39.3356C31.1638 39.7493 30.173 39.9562 28.972 39.9562ZM29.7183 37.1892C30.3617 37.1892 30.9023 37.0771 31.3398 36.853C31.7859 36.6203 32.1376 36.3574 32.3949 36.0643C32.661 35.7713 32.8411 35.5256 32.9354 35.3273C33.1156 34.9481 33.2185 34.5085 33.2442 34.0085C33.2787 33.4999 33.2958 33.0776 33.2958 32.7414L34.3252 33C33.2872 33.1724 32.4465 33.3189 31.803 33.4396C31.1596 33.5516 30.6406 33.6551 30.2459 33.7499C29.8513 33.8448 29.5038 33.9482 29.2036 34.0603C28.8604 34.1981 28.5815 34.3489 28.3671 34.5127C28.1613 34.6679 28.0068 34.8404 27.9038 35.03C27.8095 35.2195 27.7623 35.4308 27.7623 35.6635C27.7623 35.9824 27.8396 36.2583 27.9939 36.491C28.1569 36.7151 28.3843 36.8876 28.676 37.0082C28.9676 37.1289 29.3151 37.1892 29.7183 37.1892Z" fill="#141623"/>
<path d="M22.6709 39.5683C21.7101 39.7492 20.7665 39.8269 19.8399 39.801C18.9219 39.7838 18.0983 39.6243 17.3691 39.3226C16.6485 39.0123 16.0994 38.5167 15.7219 37.8357C15.3788 37.1978 15.1987 36.5514 15.1815 35.8963C15.1644 35.2325 15.1558 34.4825 15.1558 33.6465V21.7253H18.656V33.4396C18.656 33.9826 18.6602 34.4739 18.6689 34.9135C18.6861 35.3445 18.7762 35.6894 18.9391 35.9479C19.248 36.4392 19.7412 36.7065 20.419 36.7496C21.0968 36.7927 21.8474 36.7582 22.6709 36.6461V39.5683ZM12.788 28.3194V25.6042H22.6709V28.3194H12.788Z" fill="#141623"/>
<path d="M6.20263 39.9562C4.45251 39.9562 3.03697 39.5597 1.95601 38.7666C0.883638 37.9649 0.231634 36.8358 0 35.3791L3.57745 34.836C3.72328 35.4911 4.045 36.004 4.54258 36.3747C5.04874 36.7452 5.68788 36.9306 6.45999 36.9306C7.09484 36.9306 7.58384 36.8099 7.927 36.5686C8.27017 36.3186 8.44175 35.9738 8.44175 35.5342C8.44175 35.2584 8.37312 35.0386 8.23585 34.8748C8.09859 34.7024 7.78974 34.5343 7.30931 34.3705C6.83747 34.2067 6.09968 33.9912 5.09594 33.724C3.9635 33.431 3.05842 33.1034 2.38068 32.7414C1.70293 32.3794 1.21393 31.9484 0.913665 31.4484C0.613399 30.9399 0.463266 30.3278 0.463266 29.6124C0.463266 28.7159 0.69061 27.9402 1.1453 27.2851C1.59999 26.6213 2.23912 26.1128 3.06271 25.7594C3.89487 25.3973 4.87287 25.2163 5.99673 25.2163C7.08626 25.2163 8.0514 25.3844 8.89214 25.7206C9.73288 26.0567 10.4106 26.5351 10.9254 27.1558C11.4487 27.7764 11.7704 28.5091 11.8905 29.3538L8.31306 30.0003C8.25301 29.4831 8.02995 29.0737 7.6439 28.772C7.25784 28.4703 6.73452 28.2936 6.07394 28.2419C5.43051 28.1988 4.91148 28.285 4.51685 28.5004C4.13079 28.7159 3.93776 29.0263 3.93776 29.4314C3.93776 29.6727 4.01927 29.8753 4.18227 30.0391C4.35384 30.2029 4.70129 30.3709 5.22462 30.5433C5.75651 30.7157 6.56294 30.9399 7.6439 31.2157C8.69911 31.4915 9.54414 31.8148 10.179 32.1854C10.8224 32.5475 11.29 32.987 11.5816 33.5043C11.8734 34.0128 12.0192 34.6291 12.0192 35.3532C12.0192 36.7841 11.5045 37.909 10.475 38.7278C9.44549 39.5467 8.02137 39.9562 6.20263 39.9562Z" fill="#141623"/>
</g>
<defs>
<filter id="filter0_f_1283_2258" x="-3.5521" y="-50.2117" width="114.241" height="112.1" filterUnits="userSpaceOnUse" color-interpolation-filters="sRGB">
<feFlood flood-opacity="0" result="BackgroundImageFix"/>
<feBlend mode="normal" in="SourceGraphic" in2="BackgroundImageFix" result="shape"/>
<feGaussianBlur stdDeviation="24.0291" result="effect1_foregroundBlur_1283_2258"/>
</filter>
<linearGradient id="paint0_linear_1283_2258" x1="54.2372" y1="3.26033" x2="32.9372" y2="16.4502" gradientUnits="userSpaceOnUse">
<stop stop-color="#00BF86"/>
<stop offset="1" stop-color="#00DF9C"/>
</linearGradient>
<clipPath id="clip0_1283_2258">
<rect width="34.0757" height="20.4755" fill="white" transform="translate(32.9619)"/>
</clipPath>
<clipPath id="clip1_1283_2258">
<rect width="100" height="18.3496" fill="white" transform="translate(0 21.6503)"/>
</clipPath>
</defs>
</svg>
